<?xml version="1.0" encoding="UTF-8" standalone="no"?>
<!DOCTYPE svg PUBLIC "-//W3C//DTD SVG 1.1//EN" "http://www.w3.org/Graphics/SVG/1.1/DTD/svg11.dtd">
<!-- Generated by Microsoft Visio, SVG Export b - 4szt.svg Page-6 -->
<svg xmlns="http://www.w3.org/2000/svg" xmlns:xlink="http://www.w3.org/1999/xlink" xmlns:ev="http://www.w3.org/2001/xml-events"
		xmlns:v="http://schemas.microsoft.com/visio/2003/SVGExtensions/" width="11.6929in" height="8.26772in"
		viewBox="0 0 841.89 595.276" xml:space="preserve" color-interpolation-filters="sRGB" class="st2">
	<v:documentProperties v:langID="1033" v:metric="true" v:viewMarkup="false">
		<v:userDefs>
			<v:ud v:nameU="msvSubprocessMaster" v:prompt="" v:val="VT4(Rectangle)"/>
			<v:ud v:nameU="msvNoAutoConnect" v:val="VT0(1):26"/>
		</v:userDefs>
	</v:documentProperties>

	<style type="text/css">
	<![CDATA[
		.st1 {fill:none;stroke:#ee0000;stroke-width:0.25}
		.st2 {fill:none;fill-rule:evenodd;font-size:12px;overflow:visible;stroke-linecap:square;stroke-miterlimit:3}
	]]>
	</style>

	<g v:mID="11" v:index="6" v:groupContext="foregroundPage">
		<v:userDefs>
			<v:ud v:nameU="msvThemeOrder" v:val="VT0(0):26"/>
			<v:ud v:nameU="LPrec" v:val="VT0(2):26"/>
			<v:ud v:nameU="LUnits" v:val="VT0(0):26"/>
			<v:ud v:nameU="ShowUnits" v:val="VT0(0):26"/>
		</v:userDefs>
		<title>Page-6</title>
		<v:pageProperties v:drawingScale="0.0393701" v:pageScale="0.0393701" v:drawingUnits="24" v:shadowOffsetX="8.50394"
				v:shadowOffsetY="-8.50394"/>
		<v:layer v:name="Dimensions" v:index="0"/>
		<g id="shape20-1" v:mID="20" v:groupContext="shape" transform="translate(99.2126,-364.961)">
			<title>Sheet.20</title>
			<path d="M26.22 587.48 A3.54331 3.54331 0 1 1 33.31 587.48 A3.54331 3.54331 0 1 1 26.22 587.48 ZM236.69 587.48 A3.54331
						 3.54331 0 1 1 229.61 587.48 A3.54331 3.54331 0 1 1 236.69 587.48 ZM236.69 454.25 A3.54331 3.54331 0 1 1
						 229.61 454.25 A3.54331 3.54331 0 0 1 236.69 454.25 ZM26.22 454.25 A3.54331 3.54331 0 0 1 33.31 454.25 A3.54331
						 3.54331 0 0 1 26.22 454.25 ZM0 446.46 L0 595.28 L233.15 595.28 A7.79515 7.79515 -180 0 0 240.94 587.48 L240.94
						 454.25 A7.79515 7.79515 -180 0 0 233.15 446.46 L0 446.46 Z" class="st1"/>
		</g>
	</g>
</svg>
