<?xml version="1.0" encoding="UTF-8" standalone="no"?>
<!DOCTYPE svg PUBLIC "-//W3C//DTD SVG 1.1//EN" "http://www.w3.org/Graphics/SVG/1.1/DTD/svg11.dtd">
<!-- Generated by Microsoft Visio, SVG Export c1 - 1szt.svg Page-5 -->
<svg xmlns="http://www.w3.org/2000/svg" xmlns:xlink="http://www.w3.org/1999/xlink" xmlns:ev="http://www.w3.org/2001/xml-events"
		xmlns:v="http://schemas.microsoft.com/visio/2003/SVGExtensions/" width="11.6929in" height="8.26772in"
		viewBox="0 0 841.89 595.276" xml:space="preserve" color-interpolation-filters="sRGB" class="st2">
	<v:documentProperties v:langID="1033" v:metric="true" v:viewMarkup="false">
		<v:userDefs>
			<v:ud v:nameU="msvSubprocessMaster" v:prompt="" v:val="VT4(Rectangle)"/>
			<v:ud v:nameU="msvNoAutoConnect" v:val="VT0(1):26"/>
		</v:userDefs>
	</v:documentProperties>

	<style type="text/css">
	<![CDATA[
		.st1 {fill:none;stroke:#ee0000;stroke-width:0.25}
		.st2 {fill:none;fill-rule:evenodd;font-size:12px;overflow:visible;stroke-linecap:square;stroke-miterlimit:3}
	]]>
	</style>

	<g v:mID="10" v:index="4" v:groupContext="foregroundPage">
		<v:userDefs>
			<v:ud v:nameU="msvThemeOrder" v:val="VT0(0):26"/>
			<v:ud v:nameU="LPrec" v:val="VT0(2):26"/>
			<v:ud v:nameU="LUnits" v:val="VT0(0):26"/>
			<v:ud v:nameU="ShowUnits" v:val="VT0(0):26"/>
		</v:userDefs>
		<title>Page-5</title>
		<v:pageProperties v:drawingScale="0.0393701" v:pageScale="0.0393701" v:drawingUnits="24" v:shadowOffsetX="8.50394"
				v:shadowOffsetY="-8.50394"/>
		<v:layer v:name="Dimensions" v:index="0"/>
		<g id="shape20-1" v:mID="20" v:groupContext="shape" transform="translate(121.89,-364.961)">
			<title>Sheet.20</title>
			<path d="M214.02 587.48 A3.54331 3.54331 0 0 1 206.93 587.48 A3.54331 3.54331 0 0 1 214.02 587.48 ZM214.02 454.25 A3.54331
						 3.54331 0 0 1 206.93 454.25 A3.54331 3.54331 0 0 1 214.02 454.25 ZM204.94 491.1 A10.7717 10.7717 0 1 1 183.4
						 491.1 A10.7717 10.7717 0 1 1 204.94 491.1 ZM205.94 536.46 A11.7638 11.7638 0 0 1 182.41 536.46 A11.7638
						 11.7638 0 1 1 205.94 536.46 ZM3.54 587.48 A3.54331 3.54331 0 1 1 10.63 587.48 A3.54331 3.54331 0 1 1 3.54
						 587.48 ZM3.54 454.25 A3.54331 3.54331 0 0 1 10.63 454.25 A3.54331 3.54331 0 0 1 3.54 454.25 ZM0 446.46 L0
						 595.28 L210.47 595.28 A7.79516 7.79516 -180 0 0 218.27 587.48 L218.27 454.25 A7.79516 7.79516 -180 0 0 210.47
						 446.46 L0 446.46 Z" class="st1"/>
		</g>
	</g>
</svg>
